<?xml version="1.0" encoding="UTF-8"?>
<svg version="1.1" xmlns="http://www.w3.org/2000/svg" width="270" height="187">
<path d="M0 0 C89.1 0 178.2 0 270 0 C270 61.71 270 123.42 270 187 C180.9 187 91.8 187 0 187 C0 125.29 0 63.58 0 0 Z " fill="#018322" transform="translate(0,0)"/>
<path d="M0 0 C2.90992074 2.12170473 5.38371815 4.22556272 7.79296875 6.91015625 C9.50525081 8.75762894 9.50525081 8.75762894 11.95703125 8.3046875 C15.09000812 7.3204337 16.47982855 6.0314566 18.79296875 3.72265625 C26.99069849 -3.91302178 35.38773803 -6.93513817 46.4453125 -6.80078125 C55.16776543 -6.04605726 62.41445924 -1.54045069 68.60546875 4.47265625 C78.64711283 16.46562418 79.73643238 31.44158091 78.60546875 46.47265625 C77.329382 55.85255161 73.71924196 63.89387974 68.99609375 71.9609375 C67.44401153 74.28577911 67.44401153 74.28577911 67.60546875 76.47265625 C69.30186906 77.76619909 71.06674006 78.97028218 72.85546875 80.1328125 C73.93828125 80.84373047 75.02109375 81.55464844 76.13671875 82.28710938 C77.2926615 83.03693221 78.44891565 83.78627518 79.60546875 84.53515625 C81.85837066 86.00086551 84.10746539 87.47206744 86.35546875 88.9453125 C87.3609375 89.59765869 88.36640625 90.25000488 89.40234375 90.92211914 C90.129375 91.43379639 90.85640625 91.94547363 91.60546875 92.47265625 C91.60546875 92.80265625 91.60546875 93.13265625 91.60546875 93.47265625 C38.80546875 93.47265625 -13.99453125 93.47265625 -68.39453125 93.47265625 C-65.38214244 90.46026744 -63.11178304 88.47089458 -59.62890625 86.23828125 C-58.73945312 85.66464844 -57.85 85.09101563 -56.93359375 84.5 C-56.01320313 83.91347656 -55.0928125 83.32695312 -54.14453125 82.72265625 C-53.20867187 82.12066406 -52.2728125 81.51867187 -51.30859375 80.8984375 C-49.00674127 79.41867519 -46.70202321 77.94360292 -44.39453125 76.47265625 C-45.43838862 71.89344765 -47.60035393 68.14931124 -49.82421875 64.03125 C-53.75132762 55.13175702 -54.92608861 46.71121494 -54.83203125 37.03515625 C-54.82373291 35.93421631 -54.81543457 34.83327637 -54.80688477 33.69897461 C-54.64737817 26.05230778 -54.0879539 19.30988509 -50.39453125 12.47265625 C-49.92015625 11.58835937 -49.44578125 10.7040625 -48.95703125 9.79296875 C-44.10017562 1.92392861 -37.34741466 -2.49312378 -28.89453125 -5.96484375 C-17.92664228 -7.72754019 -9.45706833 -6.0321594 0 0 Z " fill="#FDFEFE" transform="translate(123.39453125,93.52734375)"/>
<path d="M0 0 C52.47 0 104.94 0 159 0 C156.85422012 2.14577988 155.18843219 2.89375336 152.4375 4.125 C142.89821615 8.87399412 137.5552289 14.65346503 133.19140625 24.36328125 C132 27 132 27 130 30 C129.61585938 29.25234375 129.23171875 28.5046875 128.8359375 27.734375 C126.74438575 24.61929792 124.80103701 23.21653251 121.625 21.25 C120.68914062 20.65703125 119.75328125 20.0640625 118.7890625 19.453125 C116.11775778 18.06135279 113.96548691 17.40977637 111 17 C110.34 18.32 109.68 19.64 109 21 C109.7425 21.66 110.485 22.32 111.25 23 C114.42477629 26.1566864 116.3627862 29.85666005 118 34 C118 34.66 118 35.32 118 36 C116.88625 36.268125 115.7725 36.53625 114.625 36.8125 C87.89156984 43.5526399 65.33190889 58.54615641 50.9375 82.5 C46.31980134 90.5804037 43.16594876 99.27385374 40 108 C39.16597656 107.96519531 38.33195312 107.93039063 37.47265625 107.89453125 C26.64567492 107.6340884 18.29281129 109.04551189 10.18359375 116.71875 C2.90695019 124.37517663 1.26758977 131.97176632 1.52734375 142.4296875 C2.6933054 151.2370342 7.11285288 158.23656197 14.05078125 163.66796875 C20.24066857 167.89793183 25.5922166 169.14389741 33 169.125 C34.010625 169.12757813 35.02125 169.13015625 36.0625 169.1328125 C38.82231797 169.0080335 41.3047982 168.57210544 44 168 C45.67007687 170.97726736 47.33548572 173.9571197 49 176.9375 C49.47695313 177.78763672 49.95390625 178.63777344 50.4453125 179.51367188 C50.89648438 180.32255859 51.34765625 181.13144531 51.8125 181.96484375 C52.23144531 182.7137085 52.65039062 183.46257324 53.08203125 184.23413086 C54 186 54 186 54 187 C36.18 187 18.36 187 0 187 C0 125.29 0 63.58 0 0 Z " fill="#FEFEFE" transform="translate(0,0)"/>
<path d="M0 0 C36.3 0 72.6 0 110 0 C110 61.71 110 123.42 110 187 C92.18 187 74.36 187 56 187 C64 171 64 171 67 168 C67.99 168.33 68.98 168.66 70 169 C80.6016349 169.91860757 89.86964268 168.59979653 98.375 161.875 C105.17017316 155.40074877 108.05371976 147.03324862 108.3125 137.8125 C108.19508327 129.07669515 105.01413254 122.1133257 99.0703125 115.7578125 C92.58713555 110.2532283 85.14527702 107.97263247 76.8125 107.4375 C74.90404297 107.31181641 74.90404297 107.31181641 72.95703125 107.18359375 C71.98121094 107.12300781 71.00539063 107.06242187 70 107 C69.64808594 105.99582031 69.29617187 104.99164063 68.93359375 103.95703125 C59.85914749 78.58415556 44.88082306 56.94542587 20.07226562 44.95996094 C17.07250813 43.57742476 14.04547976 42.2791015 11 41 C10.27554688 40.67386719 9.55109375 40.34773438 8.8046875 40.01171875 C2.23170422 37.23740762 -5.01502412 36.28239792 -12 35 C-11.67623441 24.38048868 -10.28597085 16.96903062 -3 9 C-0.75 7.1875 -0.75 7.1875 1 6 C0.67 4.02 0.34 2.04 0 0 Z " fill="#FEFEFE" transform="translate(160,0)"/>
<path d="M0 0 C4.35950104 -0.4359501 6.57653841 -0.23867835 10.4375 1.9375 C13.41989447 5.5018251 13.90400835 7.30354757 13.5859375 11.83984375 C12.50243928 15.83434051 10.55956846 16.95654403 7 19 C2.82750218 19.57269578 1.54129184 19.36086122 -2 17 C-2.99295853 11.15969552 -1.91950434 5.51857498 0 0 Z " fill="#F7FAF8" transform="translate(234,129)"/>
<path d="M0 0 C0.66 0.33 1.32 0.66 2 1 C3.28494162 6.0112723 3.77622134 11.86215399 3 17 C-0.51253146 19.34168764 -1.86469356 19.49623677 -6 19 C-8.69990662 17.20006226 -10.5418865 15.916227 -12 13 C-12.39447548 8.81855989 -12.45035186 6.69053952 -10.125 3.125 C-6.75793631 -0.24206369 -4.67293815 -0.19470576 0 0 Z " fill="#F4F9F5" transform="translate(35,129)"/>
</svg>
