<?xml version="1.0" encoding="UTF-8"?>
<svg xmlns="http://www.w3.org/2000/svg"
     version="1.2"
     baseProfile="tiny-ps"
     width="270pt"
     height="187pt"
     viewBox="0 0 270 187">
  <title>Company Logo</title>
  <g fill="#000000" stroke="none" transform="translate(0,187) scale(0.1,-0.1)">
    <path d="M1524 1832 c-109 -60 -181 -142 -205 -232 -9 -37 -13 -42 -19 -25 -11 30 -79 88 -135 115 l-48 23 -17 -21 c-17 -21 -16 -23 19 -60 33 -35 69 -107 59 -118 -3 -2 -40 -13 -84 -25 -312 -81 -564 -317 -668 -626 l-22 -66 -80 -2 c-65 -1 -91 -6 -136 -28 -62 -30 -115 -83 -150 -149 -32 -60 -33 -192 -2 -259 52 -112 158 -183 274 -184 36 0 81 3 100 8 34 7 37 5 48 -25 6 -18 28 -61 48 -95 l37 -61 126 86 c69 47 127 86 129 88 2 1 -13 30 -32 65 -99 183 -111 401 -30 566 60 124 161 188 299 188 71 0 88 -4 145 -32 36 -18 87 -53 114 -78 27 -25 54 -45 59 -45 6 0 34 23 64 51 79 74 149 104 248 104 94 0 164 -27 234 -91 147 -132 162 -462 32 -675 -18 -28 -31 -52 -29 -53 2 -2 60 -41 129 -88 l126 -86 37 61 c20 34 42 77 48 94 11 31 13 32 52 25 127 -23 239 10 311 90 57 63 79 120 79 208 0 127 -55 221 -166 280 -55 30 -72 34 -138 35 l-75 0 -31 85 c-116 323 -381 555 -713 626 l-83 18 5 59 c7 74 47 157 97 200 30 25 38 38 33 55 -7 29 -27 28 -89 -6z"/>
  </g>
</svg>

